#N canvas -8 -8 1920 997 10;
#X text 177 277 creation arguments are OSC address;
#X text 179 238 set message to change OSC address;
#X text 164 48 1 Set IP Address : network address;
#X text 164 68 2 Set Ports (sending and listening);
#X text 164 87 3 Set OSC Addresses (routing osc data;
#X text 155 26 Key Settings;
#X floatatom 43 194 5 0 0 0 - - -;
#X floatatom 495 579 5 0 0 0 - - -;
#X obj 495 733 *~;
#X obj 486 778 dac~;
#X obj 494 548 mtof;
#X obj 492 487 + 0;
#X obj 610 639 vline~;
#X floatatom 637 470 5 0 0 0 - - -;
#X obj 637 407 loadbang;
#X msg 395 405 0;
#X floatatom 455 258 5 0 0 0 - - -;
#N canvas 1099 23 623 462 oscReceive 0;
#X obj 55 184 netreceive -u -b;
#X msg 78 143 listen 0;
#X text 152 143 stop listening;
#X text 64 58 packets from network;
#X text 173 177 UDP packets \, binary output, f 13;
#X obj 45 314 print;
#X obj 45 272 oscparse;
#X text 150 114 listen on port 8000;
#X obj 177 269 oscparse;
#X obj 177 293 list trim;
#X floatatom 140 380 5 0 0 0 - - -;
#X text 241 267 Parse the OSC message;
#X obj 177 319 route unity;
#X obj 139 357 route trigger;
#X obj 140 407 s osctrig;
#X msg 66 115 listen 8000;
#X obj 66 84 loadbang;
#X floatatom 244 382 5 0 0 0 - - -;
#X obj 243 359 route tempo;
#X obj 244 409 s osctempo;
#X floatatom 339 382 5 0 0 0 - - -;
#X obj 338 359 route playseq;
#X obj 339 409 s oscplayseq;
#X floatatom 437 382 5 0 0 0 - - -;
#X obj 436 359 route colwall;
#X obj 437 409 s oscwall;
#X floatatom 535 382 5 0 0 0 - - -;
#X obj 535 349 route start;
#X obj 533 410 s oscstart;
#X connect 0 0 6 0;
#X connect 0 0 8 0;
#X connect 1 0 0 0;
#X connect 6 0 5 0;
#X connect 8 0 9 0;
#X connect 9 0 12 0;
#X connect 10 0 14 0;
#X connect 12 0 13 0;
#X connect 12 0 18 0;
#X connect 12 0 21 0;
#X connect 12 0 24 0;
#X connect 12 0 27 0;
#X connect 13 0 10 0;
#X connect 15 0 0 0;
#X connect 16 0 15 0;
#X connect 17 0 19 0;
#X connect 18 0 17 0;
#X connect 20 0 22 0;
#X connect 21 0 20 0;
#X connect 23 0 25 0;
#X connect 24 0 23 0;
#X connect 26 0 28 0;
#X connect 27 0 26 0;
#X restore 47 142 pd oscReceive;
#X obj 47 36 tgl 15 0 empty empty empty 17 7 0 10 -262144 -1 -1 0 1
;
#X msg 47 61 \; pd dsp \$1;
#X msg 434 405 2;
#X msg 475 405 4;
#X msg 517 405 5;
#X msg 554 406 7;
#X msg 595 406 9;
#X obj 455 225 r osctrig;
#X obj 44 278 oscformat PD message;
#X msg 76 239 set PD message;
#N canvas 727 97 450 300 oscSend 0;
#X msg 158 207 disconnect;
#X obj 61 253 netsend -u -b;
#X obj 59 55 list prepend send;
#X obj 59 80 list trim;
#X msg 150 175 connect 127.0.0.1 8001;
#X obj 59 29 r oscOut;
#X text 301 163 send to port 8001;
#X msg 147 148 connect localhost 8001;
#X obj 147 108 loadbang;
#X connect 0 0 1 0;
#X connect 2 0 3 0;
#X connect 3 0 1 0;
#X connect 4 0 1 0;
#X connect 5 0 2 0;
#X connect 7 0 1 0;
#X connect 8 0 7 0;
#X restore 47 118 pd oscSend;
#X obj 44 313 s oscOut;
#X obj 1389 965 *~;
#X obj 1380 1010 dac~;
#X obj 1378 345 metro 4000;
#X obj 1380 312 tgl 15 0 empty empty empty 17 7 0 10 -262144 -1 -1
0 1;
#X floatatom 1436 316 5 0 0 0 - - -;
#X obj 1359 379 f;
#X obj 1402 381 + 1;
#X obj 1784 947 vline~;
#X obj 968 378 *~;
#X obj 959 423 dac~;
#X obj 1032 346 vline~;
#X obj 899 294 noise~;
#X obj 1031 254 bng 15 250 50 0 empty empty empty 17 7 0 10 -262144
-1 -1;
#X obj 1345 834 phasor~;
#X floatatom 1343 775 5 0 0 0 - - -;
#X obj 1416 859 phasor~;
#X obj 1415 828 * -1;
#X obj 1388 892 +~;
#X obj 1386 925 -~ 1;
#X msg 1417 797 0;
#X msg 1465 797 0.5;
#X obj 1438 767 bng 15 250 50 0 empty empty empty 17 7 0 10 -262144
-1 -1;
#X obj 1437 742 loadbang;
#X obj 1496 265 r osctempo;
#X obj 1421 239 loadbang;
#X obj 1327 240 r oscplayseq;
#X obj 450 653 osc~;
#X obj 1025 216 r oscwall;
#X msg 1784 445 0.5 25 \, 0 100 75;
#X obj 502 658 osc~;
#X msg 637 444 60;
#X obj 504 631 * 1.5;
#X msg 610 587 0.85 100 \, 0 500 500;
#X msg 1032 294 1 25 \, 0 1000 75;
#X text 451 198 Tirgger when picking up rotating cube...;
#X text 946 189 Trigger noise burst when running into a wall;
#X text 1313 188 Sequence playback: tempo increases as more cubes are
collected.;
#X obj 941 343 *~;
#X floatatom 972 287 5 0 0 0 - - -;
#X obj 955 739 *~;
#X obj 946 784 dac~;
#X obj 1019 707 vline~;
#X obj 1018 615 bng 15 250 50 0 empty empty empty 17 7 0 10 -262144
-1 -1;
#X msg 1019 655 1 25 \, 0 1000 75;
#X text 933 550 Trigger ping when the game starts;
#X obj 933 674 osc~ 500;
#X obj 1012 577 r oscstart;
#X msg 1437 283 600;
#X msg 1281 522 261.63;
#X msg 1229 522 246.94;
#X msg 1333 521 277.18;
#X msg 1388 524 293.66;
#X msg 1446 525 329.63;
#X msg 1504 525 349.23;
#X msg 1567 522 369.99;
#X msg 1630 521 440;
#X msg 1690 525 493.88;
#X text 1245 546 B;
#X text 1304 547 C;
#X text 1347 547 C#;
#X text 1401 548 D;
#X text 1464 546 E;
#X text 1510 551 F;
#X text 1579 546 F#;
#X text 1634 546 A;
#X text 1702 544 B;
#X obj 1379 414 mod 26;
#X obj 1323 449 select 0 1 2 3 4 5 6 7 8 9 10 11 12 13 14 15 16 17
18 19 20 21 22 23 24 25;
#X obj 434 323 select 0 1 2 3 4 5 6 7 8 9 10;
#X connect 6 0 26 0;
#X connect 7 0 61 0;
#X connect 7 0 56 0;
#X connect 8 0 9 0;
#X connect 8 0 9 1;
#X connect 10 0 7 0;
#X connect 11 0 10 0;
#X connect 11 0 62 0;
#X connect 12 0 8 1;
#X connect 13 0 11 1;
#X connect 14 0 60 0;
#X connect 15 0 11 0;
#X connect 16 0 98 0;
#X connect 18 0 19 0;
#X connect 20 0 11 0;
#X connect 21 0 11 0;
#X connect 22 0 11 0;
#X connect 23 0 11 0;
#X connect 24 0 11 0;
#X connect 25 0 16 0;
#X connect 26 0 29 0;
#X connect 27 0 26 0;
#X connect 30 0 31 0;
#X connect 30 0 31 1;
#X connect 32 0 35 0;
#X connect 32 0 58 0;
#X connect 33 0 32 0;
#X connect 34 0 32 1;
#X connect 35 0 36 0;
#X connect 35 0 96 0;
#X connect 36 0 35 1;
#X connect 37 0 30 1;
#X connect 38 0 39 0;
#X connect 38 0 39 1;
#X connect 40 0 38 1;
#X connect 41 0 67 0;
#X connect 42 0 63 0;
#X connect 43 0 47 0;
#X connect 44 0 46 0;
#X connect 44 0 43 0;
#X connect 45 0 47 1;
#X connect 46 0 45 0;
#X connect 47 0 48 0;
#X connect 48 0 30 0;
#X connect 49 0 43 1;
#X connect 50 0 45 1;
#X connect 51 0 49 0;
#X connect 51 0 50 0;
#X connect 52 0 51 0;
#X connect 53 0 34 0;
#X connect 54 0 77 0;
#X connect 55 0 33 0;
#X connect 55 0 77 0;
#X connect 56 0 8 0;
#X connect 57 0 42 0;
#X connect 57 0 68 0;
#X connect 58 0 37 0;
#X connect 59 0 8 0;
#X connect 60 0 13 0;
#X connect 61 0 59 0;
#X connect 62 0 12 0;
#X connect 63 0 40 0;
#X connect 67 0 38 0;
#X connect 68 0 67 1;
#X connect 69 0 70 0;
#X connect 69 0 70 1;
#X connect 71 0 69 1;
#X connect 72 0 73 0;
#X connect 73 0 71 0;
#X connect 75 0 69 0;
#X connect 76 0 72 0;
#X connect 77 0 34 0;
#X connect 78 0 44 0;
#X connect 79 0 44 0;
#X connect 80 0 44 0;
#X connect 81 0 44 0;
#X connect 82 0 44 0;
#X connect 83 0 44 0;
#X connect 84 0 44 0;
#X connect 85 0 44 0;
#X connect 86 0 44 0;
#X connect 96 0 97 0;
#X connect 97 0 79 0;
#X connect 97 1 80 0;
#X connect 97 2 81 0;
#X connect 97 3 82 0;
#X connect 97 4 84 0;
#X connect 97 5 81 0;
#X connect 97 6 84 0;
#X connect 97 7 83 0;
#X connect 97 8 80 0;
#X connect 97 9 83 0;
#X connect 97 10 82 0;
#X connect 97 11 78 0;
#X connect 97 12 82 0;
#X connect 97 13 79 0;
#X connect 97 14 80 0;
#X connect 97 15 81 0;
#X connect 97 16 82 0;
#X connect 97 17 84 0;
#X connect 97 18 81 0;
#X connect 97 19 84 0;
#X connect 97 20 86 0;
#X connect 97 21 85 0;
#X connect 97 22 84 0;
#X connect 97 23 81 0;
#X connect 97 24 84 0;
#X connect 97 25 85 0;
#X connect 97 26 86 0;
#X connect 98 0 15 0;
#X connect 98 1 15 0;
#X connect 98 2 20 0;
#X connect 98 3 15 0;
#X connect 98 4 21 0;
#X connect 98 5 15 0;
#X connect 98 6 22 0;
#X connect 98 7 15 0;
#X connect 98 8 23 0;
#X connect 98 9 15 0;
#X connect 98 10 24 0;
#X connect 98 11 15 0;
